HIERARCHY
ROOT Pelvis
{
	OFFSET 0.000000 0.000000 0.000000
	CHANNELS 6 Xposition Yposition Zposition Zrotation Yrotation Xrotation 
	JOINT Left_hip
	{
		OFFSET 0.076090 -0.089427 -0.010735
		CHANNELS 3 Zrotation Yrotation Xrotation
		JOINT Left_knee
		{
			OFFSET 0.030200 -0.359518 -0.003501
			CHANNELS 3 Zrotation Yrotation Xrotation
			JOINT Left_ankle
			{
				OFFSET -0.011005 -0.371022 -0.045888
				CHANNELS 3 Zrotation Yrotation Xrotation
				JOINT Left_foot
				{
					OFFSET 0.023930 -0.052103 0.111084
					CHANNELS 3 Zrotation Yrotation Xrotation
					End Site
					{
						OFFSET 0.000000 0.000000 0.000000
					}
				}
			}
		}
	}
	JOINT Right_hip
	{
		OFFSET -0.073836 -0.088112 -0.007709
		CHANNELS 3 Zrotation Yrotation Xrotation
		JOINT Right_knee
		{
			OFFSET -0.035715 -0.367809 -0.006536
			CHANNELS 3 Zrotation Yrotation Xrotation
			JOINT Right_ankle
			{
				OFFSET 0.013718 -0.371958 -0.043815
				CHANNELS 3 Zrotation Yrotation Xrotation
				JOINT Right_foot
				{
					OFFSET -0.021936 -0.046387 0.114542
					CHANNELS 3 Zrotation Yrotation Xrotation
					End Site
					{
						OFFSET 0.000000 0.000000 0.000000
					}
				}
			}
		}
	}
	JOINT Spine1
	{
		OFFSET -0.001865 0.102064 -0.019455
		CHANNELS 3 Zrotation Yrotation Xrotation
		JOINT Spine2
		{
			OFFSET 0.003082 0.129260 -0.001938
			CHANNELS 3 Zrotation Yrotation Xrotation
			JOINT Spine3
			{
				OFFSET 0.001104 0.048093 0.026561
				CHANNELS 3 Zrotation Yrotation Xrotation
				JOINT Neck
				{
					OFFSET -0.002010 0.204222 -0.047183
					CHANNELS 3 Zrotation Yrotation Xrotation
					JOINT Head
					{
						OFFSET 0.005050 0.063649 0.048489
						CHANNELS 3 Zrotation Yrotation Xrotation
						End Site
						{
							OFFSET 0.000000 0.000000 0.000000
						}
					}
				}
				JOINT Left_collar
				{
					OFFSET 0.072979 0.114065 -0.031633
					CHANNELS 3 Zrotation Yrotation Xrotation
					JOINT Left_shoulder
					{
						OFFSET 0.083419 0.032092 -0.006530
						CHANNELS 3 Zrotation Yrotation Xrotation
						JOINT Left_elbow
						{
							OFFSET 0.239393 -0.012014 -0.025060
							CHANNELS 3 Zrotation Yrotation Xrotation
							JOINT Left_wrist
							{
								OFFSET 0.227297 0.008116 0.000384
								CHANNELS 3 Zrotation Yrotation Xrotation
								JOINT Left_palm
								{
									OFFSET 0.074607 -0.009248 -0.012277
									CHANNELS 3 Zrotation Yrotation Xrotation
									End Site
									{
										OFFSET 0.000000 0.000000 0.000000
									}
								}
							}
						}
					}
				}
				JOINT Right_collar
				{
					OFFSET -0.074980 0.111880 -0.037894
					CHANNELS 3 Zrotation Yrotation Xrotation
					JOINT Right_shoulder
					{
						OFFSET -0.087565 0.034353 -0.009323
						CHANNELS 3 Zrotation Yrotation Xrotation
						JOINT Right_elbow
						{
							OFFSET -0.236838 -0.013719 -0.019794
							CHANNELS 3 Zrotation Yrotation Xrotation
							JOINT Right_wrist
							{
								OFFSET -0.235053 0.006433 -0.003853
								CHANNELS 3 Zrotation Yrotation Xrotation
								JOINT Right_palm
								{
									OFFSET -0.075499 -0.006894 -0.009792
									CHANNELS 3 Zrotation Yrotation Xrotation
									End Site
									{
										OFFSET 0.000000 0.000000 0.000000
									}
								}
							}
						}
					}
				}
			}
		}
	}
}
MOTION
Frames: 12
Frame Time: 0.100000
0.000000 0.000000 0.000000 173.594692 33.159670 -16.981031 1.567641 1.594713 9.146704 -2.248896 -9.562195 -6.340647 -1.935935 8.752321 -6.066093 3.918356 6.627296 -4.802251 1.606682 -1.772283 8.068554 2.975809 5.653505 -4.333927 6.404232 -12.404704 -10.360493 -9.355054 8.065126 3.257608 2.252344 0.699774 3.055645 0.543888 -1.105291 1.294789 0.162427 -1.766926 3.150129 0.367805 4.079169 -11.595364 -4.568544 -3.068772 3.506757 -30.439141 6.503896 2.045460 -51.496262 -1.886947 5.516475 5.337550 -2.489761 5.080723 -6.037088 -0.530726 -0.343702 -9.020091 -5.155289 -11.350269 30.534339 -1.426721 2.388464 45.737120 0.447485 11.401841 -6.650667 3.145500 -7.960762 4.164161 -2.150867 -0.858659 12.603207 7.029124 -6.277343 
0.002369 -0.000678 0.002711 173.649221 33.905524 -17.021284 1.476035 1.501076 9.163786 -2.026305 -9.884046 -6.227130 -2.668568 9.117375 -5.907101 4.913645 5.979228 -5.467546 1.605798 -2.008849 8.383411 3.017573 5.688160 -4.543550 6.810821 -12.692257 -10.303926 -10.150113 7.807012 2.590847 2.479923 0.725690 3.247340 0.494842 -0.770128 1.340262 0.222735 -1.711970 4.020192 -0.161753 4.269669 -11.803231 -4.808034 -2.503037 3.148570 -29.907036 9.261692 2.341042 -52.644666 0.612668 5.102165 5.368402 -1.377899 5.515670 -6.273656 -1.134101 -1.877074 -8.613614 -4.961187 -11.282923 30.241508 -3.385258 2.548269 46.192645 -1.293207 11.154295 -5.881008 0.880086 -7.835489 4.278349 -2.279353 -1.515330 12.350538 6.728795 -6.197865 
0.005869 -0.000788 0.003549 173.741976 35.073427 -17.199589 1.301000 1.253432 9.018426 -1.882225 -10.154970 -5.920047 -2.485497 8.821333 -5.641695 4.459236 6.080923 -5.564223 1.504280 -2.333854 8.753096 3.081584 5.250590 -4.819056 6.442305 -12.895259 -10.266464 -9.762003 7.888656 2.940913 2.720062 0.861112 3.430472 0.354079 -0.776829 1.578136 0.167759 -1.576769 4.022135 -0.513128 4.472080 -11.271131 -4.846942 -1.998303 3.330293 -29.970081 8.328423 2.202939 -52.606923 -0.434933 5.048622 5.213797 -0.819204 5.143156 -6.717463 -0.859721 -1.916023 -8.470305 -4.959716 -10.924808 30.042106 -2.910198 2.987933 46.049386 -1.284021 10.839377 -5.548354 -0.456220 -8.157586 4.827790 -2.561388 -1.412969 12.221625 6.737874 -6.082492 
0.011306 -0.000022 0.002047 173.882598 36.263696 -17.235115 1.101088 0.993890 8.308456 -1.834902 -10.236953 -5.246088 -1.401896 7.930542 -5.411480 2.582470 6.944533 -4.935138 1.403831 -2.696569 8.872828 3.144559 4.646258 -5.310458 5.420006 -13.236509 -10.131834 -8.256762 8.604767 4.229747 2.890401 1.109526 3.763749 0.173095 -1.146588 1.704305 -0.011512 -1.502435 3.069476 -0.333384 4.872298 -10.528129 -4.665315 -1.592026 4.075976 -30.592040 3.914858 1.682419 -50.400368 -4.475182 5.377558 4.164530 -0.784291 4.764158 -7.067461 0.251068 0.399571 -8.809774 -5.299985 -10.662527 30.110172 -0.086494 3.290025 44.331932 0.630096 10.729599 -5.357162 -0.240738 -8.179018 5.298263 -2.782328 0.403720 12.459803 7.175867 -6.098970 
0.020603 0.001289 -0.005208 173.923385 37.856631 -17.415661 0.711285 0.535161 6.331162 -1.875095 -10.000775 -2.995051 1.433905 6.359957 -5.116764 -1.918552 8.285600 -3.279511 1.279494 -3.234249 8.674562 3.347329 3.433525 -5.815799 2.595174 -13.284905 -9.335071 -4.138449 8.649399 7.311353 3.012122 1.553934 4.786901 0.020322 -2.352516 2.079627 -0.166028 -1.489419 1.291403 -0.505784 5.266172 -9.014055 -4.105157 -1.204819 4.127149 -29.372162 -5.886779 1.601267 -45.193616 -11.359580 6.443570 1.473247 -0.783744 8.311759 -9.123142 2.324431 6.175688 -9.658563 -5.672535 -11.200398 28.927841 6.627602 3.861469 41.366892 5.075538 9.953931 -4.996610 0.234400 -6.341737 6.715284 -3.130701 3.471119 13.024210 8.012956 -6.519454 
0.034313 0.002861 -0.017706 173.730380 39.304088 -17.306072 -0.020222 -0.670009 2.603627 -1.292676 -9.360728 0.947866 2.768961 5.487799 -5.061103 -4.340810 9.375999 -2.361214 1.643350 -3.472575 7.176152 3.148768 2.098386 -5.619928 1.783327 -13.784183 -8.534742 -2.859041 9.801809 8.967022 3.518133 1.790912 6.609632 0.079137 -2.995345 1.062711 0.178598 -1.037136 -0.240301 -1.636723 5.538464 -8.084023 -4.129459 -1.010270 5.554888 -25.887605 -14.047117 -0.354474 -40.029262 -19.236255 5.296715 2.812964 -7.049417 5.886566 -7.119368 3.234450 7.200126 -9.298206 -5.682568 -8.962960 26.040667 13.563935 2.769437 36.453120 10.734502 8.498722 -5.823638 3.170194 -7.077351 5.672626 -2.961076 5.652041 12.518804 8.328555 -5.888744 
0.048707 0.007316 -0.033256 172.746483 40.887312 -19.148454 -0.367590 -1.472912 -0.882889 -0.876071 -10.145309 6.257426 -1.612288 5.675174 -4.005033 1.619840 7.815323 -4.408483 1.169564 -5.079277 5.981537 4.285104 1.561718 -3.330687 8.081688 -14.921422 -9.102522 -12.160315 14.698706 5.269051 4.303637 2.891491 7.741609 0.848110 -3.447627 2.974971 1.108228 -0.107504 -0.085128 -3.763384 4.970718 -10.451377 -3.882461 -2.234388 8.517484 -23.023312 -24.043053 0.348294 -32.508831 -29.213300 3.120134 6.659427 -11.690082 -4.236160 2.347952 -6.439952 12.808563 -8.354992 -3.543330 -8.490026 23.015771 21.594952 2.906648 25.507155 12.879617 3.218338 -4.682185 13.196793 -11.301030 -0.672233 4.570546 -1.073124 10.175403 5.290970 -3.917325 
0.058771 0.010275 -0.040904 172.078162 41.987540 -20.521621 -0.246446 -2.533956 -2.931481 -1.115191 -10.084532 10.311643 -2.018252 5.004391 -4.719965 2.176944 9.664469 -5.328879 1.422190 -4.950841 5.422305 4.540180 0.601656 -1.712431 7.848625 -15.433973 -9.744775 -11.653490 15.016846 5.542986 4.797156 2.776703 8.552370 1.283514 -3.436279 3.212843 1.500998 0.010024 -0.053783 -2.917651 5.221429 -10.365907 -4.418688 -2.212254 9.500699 -20.168563 -25.411459 -1.214629 -29.543849 -32.403861 3.067470 14.167553 -29.562125 -7.575869 2.458334 -7.621425 10.210478 -7.507200 -2.536428 -6.910358 19.783864 23.327418 0.783137 22.158699 15.850476 2.182805 -9.961170 26.942316 -15.496008 -0.541694 5.990475 -7.408048 8.935306 4.373308 -2.310896 
0.063820 0.011019 -0.039908 172.016119 42.196924 -21.617322 0.894523 -1.645105 -3.373304 -1.508922 -7.095841 12.960553 -1.690840 5.656893 -6.239372 2.003601 12.398160 -6.993168 1.335155 -5.112185 6.372469 4.864217 0.082532 -1.515655 7.012374 -14.426470 -9.211204 -9.433239 12.973186 5.193120 4.816935 2.615602 8.147960 1.056713 -2.741719 3.159532 1.650219 0.086904 0.282532 -1.556732 4.291223 -8.615172 -4.506647 -1.625965 9.744757 -16.855665 -23.138170 -2.752872 -29.453130 -34.300533 3.751066 26.218587 -49.266203 -14.985299 2.732583 -8.704497 5.898175 -6.000033 -0.960839 -5.177018 15.011709 22.148478 -1.477268 22.896329 17.880649 4.082751 -17.419102 45.388563 -20.238059 -2.257611 6.821201 -17.847588 7.872138 3.234655 -0.878079 
0.068229 0.013483 -0.037149 169.507305 43.598255 -26.359583 3.777618 -1.023616 -4.093739 -0.807863 -2.719897 20.378518 -3.627784 9.572002 -10.584718 4.644959 11.831304 -5.624321 2.765898 -5.431137 11.187819 5.034250 0.104368 -4.002316 7.777374 -15.155938 -11.144338 -10.659538 11.550970 5.457577 5.022580 2.921152 9.680332 2.036837 -4.544923 2.772062 2.230703 -0.185649 1.838512 -1.813390 4.321314 -7.625181 -3.566546 -1.905637 8.320284 -8.714323 -23.970643 -6.468919 -24.779830 -32.925596 0.525530 46.569438 -66.063881 -34.016757 3.145500 -11.435762 -5.580648 -3.837002 -0.774527 0.916590 7.406869 21.417324 -5.846658 20.832253 17.996022 4.397024 -40.417057 63.872030 -33.480097 -3.761712 7.928301 -10.109591 7.114672 4.453297 -0.278442 
0.069086 0.014410 -0.033136 168.215720 44.604879 -27.710307 5.607694 -1.655929 -5.887180 -0.992959 -4.678583 23.537414 -6.391794 10.327638 -10.422781 8.071938 11.204377 -5.939100 3.502192 -5.912630 11.772817 5.185713 1.219001 -3.694845 8.923075 -17.440857 -12.492036 -12.869442 12.758663 5.068123 4.467538 2.661043 9.146086 2.738910 -5.789431 2.343819 2.654117 -0.697585 2.788974 -1.941085 5.169679 -6.721464 -3.374140 -1.643481 7.558752 -0.762792 -22.672715 -9.335153 -13.507322 -30.223012 -4.330742 92.809045 -73.206556 -79.494578 7.312719 -13.575542 -9.246916 -4.110479 -0.099183 1.255096 0.027482 19.381985 -9.937643 13.397312 17.404601 1.797341 -90.817170 72.560347 -81.056988 -7.146714 9.877949 -13.434348 7.039533 3.961808 0.331147 
0.066308 0.009404 -0.031189 170.539685 42.552511 -26.170415 4.825922 -0.522707 -5.066099 -0.964050 -3.097181 26.271074 -6.333392 11.374877 -10.018475 7.393743 11.868586 -7.090321 3.678856 -6.301412 10.965790 3.148644 2.068988 -2.031785 10.314031 -18.194418 -11.917791 -15.285316 13.979177 2.992445 4.364617 2.363476 8.720669 1.691677 -4.828626 1.785554 2.124866 -0.111810 3.328731 -2.248549 4.758333 -5.435443 -3.329187 -0.105047 7.031270 3.611245 -19.845019 -11.502021 -7.163952 -27.383742 -8.064074 129.385664 -66.970100 -113.489579 11.440816 -14.187292 -9.246755 -4.880715 0.039101 1.132437 -5.532898 17.631287 -12.328603 7.477686 16.751622 -1.837048 -121.136067 67.020253 -110.972473 -11.365862 10.050861 -14.755675 7.986343 3.841840 0.141126 
